<?xml version="1.0" standalone="no"?>
<!DOCTYPE svg PUBLIC "-//W3C//DTD SVG 20010904//EN"
 "http://www.w3.org/TR/2001/REC-SVG-20010904/DTD/svg10.dtd">
<svg version="1.0" xmlns="http://www.w3.org/2000/svg"
 width="1080.000000pt" height="1080.000000pt" viewBox="0 0 1080.000000 1080.000000"
 preserveAspectRatio="xMidYMid meet">

<g transform="translate(0.000000,1080.000000) scale(0.100000,-0.100000)"
fill="#000000" stroke="none">
<path d="M3357 3309 c-121 -28 -177 -116 -177 -274 0 -135 42 -219 130 -259
36 -16 72 -21 183 -24 l137 -4 0 51 0 51 -121 0 c-97 0 -127 3 -150 17 -27 16
-69 84 -69 111 0 9 46 12 170 12 l170 0 0 50 0 50 -170 0 c-117 0 -170 3 -170
11 0 27 36 83 64 100 26 16 51 19 154 19 l122 0 0 50 0 50 -117 -1 c-65 -1
-135 -5 -156 -10z"/>
<path d="M4140 3036 l0 -286 55 0 55 0 0 110 0 110 79 0 79 0 62 -110 61 -110
59 0 c33 0 60 3 60 6 0 3 -22 42 -48 87 -80 136 -77 124 -39 141 118 49 127
252 15 313 -28 15 -64 18 -235 21 l-203 4 0 -286z m392 167 c25 -23 24 -87 -2
-113 -18 -18 -33 -20 -150 -20 l-130 0 0 75 0 75 132 0 c108 0 135 -3 150 -17z"/>
<path d="M4742 3113 c3 -188 6 -212 25 -248 46 -87 108 -118 233 -118 125 0
187 31 233 118 19 36 22 60 25 248 l4 207 -56 0 -56 0 0 -192 c0 -174 -2 -196
-20 -225 -29 -48 -71 -66 -147 -61 -56 3 -68 8 -96 36 l-32 32 -3 205 -3 205
-56 0 -55 0 4 -207z"/>
<path d="M5350 3036 l0 -286 181 0 c194 0 255 9 293 45 54 50 57 161 6 218
l-28 32 23 27 c57 66 35 186 -41 224 -34 16 -67 19 -236 22 l-198 4 0 -286z
m382 167 c22 -20 23 -70 1 -95 -14 -16 -33 -18 -145 -18 l-128 0 0 65 0 65
127 0 c104 0 130 -3 145 -17z m10 -230 c23 -20 24 -80 1 -105 -14 -16 -33 -18
-150 -18 l-133 0 0 70 0 70 132 0 c108 0 135 -3 150 -17z"/>
<path d="M5960 3036 l0 -286 181 0 c194 0 255 9 293 45 54 50 57 161 6 218
l-28 32 23 27 c57 66 35 186 -41 224 -34 16 -67 19 -236 22 l-198 4 0 -286z
m382 167 c22 -20 23 -70 1 -95 -14 -16 -33 -18 -145 -18 l-128 0 0 65 0 65
127 0 c104 0 130 -3 145 -17z m10 -230 c23 -20 24 -80 1 -105 -14 -16 -33 -18
-150 -18 l-133 0 0 70 0 70 132 0 c108 0 135 -3 150 -17z"/>
<path d="M6727 3309 c-121 -28 -177 -116 -177 -274 0 -135 42 -219 130 -259
36 -16 72 -21 183 -24 l137 -4 0 51 0 51 -121 0 c-97 0 -127 3 -150 17 -27 16
-69 84 -69 111 0 9 46 12 170 12 l170 0 0 50 0 50 -170 0 c-117 0 -170 3 -170
11 0 27 36 83 64 100 26 16 51 19 154 19 l122 0 0 50 0 50 -117 -1 c-65 -1
-135 -5 -156 -10z"/>
<path d="M7100 3036 l0 -286 55 0 55 0 0 110 0 110 79 0 79 0 62 -110 61 -110
59 0 c33 0 60 3 60 6 0 3 -22 42 -48 87 -80 136 -77 124 -39 141 118 49 127
252 15 313 -28 15 -64 18 -235 21 l-203 4 0 -286z m392 167 c25 -23 24 -87 -2
-113 -18 -18 -33 -20 -150 -20 l-130 0 0 75 0 75 132 0 c108 0 135 -3 150 -17z"/>
<path d="M4552 2508 c-26 -13 -39 -54 -25 -77 5 -9 23 -22 39 -29 64 -28 79
-38 83 -57 4 -21 -23 -45 -51 -45 -11 0 -30 11 -44 25 -23 23 -44 32 -44 19 0
-19 25 -44 54 -54 44 -14 83 -4 103 27 24 37 5 66 -61 93 -46 18 -56 27 -56
46 0 36 41 52 75 30 14 -9 25 -21 25 -26 0 -6 7 -10 15 -10 23 0 -2 45 -32 59
-29 13 -51 13 -81 -1z"/>
<path d="M4771 2506 c-33 -18 -50 -53 -51 -104 -1 -104 85 -155 160 -94 16 13
24 32 28 70 6 68 -12 110 -54 128 -41 17 -52 17 -83 0z m83 -27 c23 -18 26
-28 26 -79 0 -51 -3 -61 -26 -79 -15 -12 -32 -21 -39 -21 -7 0 -24 9 -39 21
-23 18 -26 28 -26 79 0 51 3 61 26 79 15 12 32 21 39 21 7 0 24 -9 39 -21z"/>
<path d="M4960 2400 l0 -120 75 0 c43 0 75 4 75 10 0 6 -27 10 -60 10 l-60 0
0 110 c0 91 -3 110 -15 110 -12 0 -15 -20 -15 -120z"/>
<path d="M5140 2426 c0 -117 14 -141 83 -141 75 0 87 19 87 137 0 59 -4 98
-10 98 -6 0 -10 -35 -10 -85 0 -78 -2 -88 -25 -110 -31 -32 -58 -32 -84 1 -17
22 -21 41 -21 110 0 49 -4 84 -10 84 -6 0 -10 -38 -10 -94z"/>
<path d="M5350 2510 c0 -5 18 -10 40 -10 l40 0 0 -110 c0 -143 18 -145 22 -2
l3 107 38 3 c73 6 35 22 -53 22 -53 0 -90 -4 -90 -10z"/>
<path d="M5570 2400 c0 -100 3 -120 15 -120 13 0 15 20 15 120 0 100 -2 120
-15 120 -12 0 -15 -20 -15 -120z"/>
<path d="M5711 2506 c-33 -18 -50 -53 -51 -104 -1 -104 85 -155 160 -94 16 13
24 32 28 70 6 68 -12 110 -54 128 -41 17 -52 17 -83 0z m83 -27 c23 -18 26
-28 26 -79 0 -51 -3 -61 -26 -79 -15 -12 -32 -21 -39 -21 -7 0 -24 9 -39 21
-23 18 -26 28 -26 79 0 51 3 61 26 79 15 12 32 21 39 21 7 0 24 -9 39 -21z"/>
<path d="M5900 2400 c0 -99 3 -120 15 -120 11 0 15 19 17 91 l3 91 58 -91 c32
-50 65 -91 73 -91 11 0 14 23 14 120 0 99 -3 120 -15 120 -11 0 -15 -19 -17
-92 l-3 -93 -58 93 c-33 50 -65 92 -73 92 -11 0 -14 -23 -14 -120z"/>
<path d="M6172 2508 c-26 -13 -39 -54 -25 -77 5 -9 23 -22 39 -29 64 -28 79
-38 83 -57 4 -21 -23 -45 -51 -45 -11 0 -30 11 -44 25 -23 23 -44 32 -44 19 0
-19 25 -44 54 -54 44 -14 83 -4 103 27 24 37 5 66 -61 93 -46 18 -56 27 -56
46 0 36 41 52 75 30 14 -9 25 -21 25 -26 0 -6 7 -10 15 -10 23 0 -2 45 -32 59
-29 13 -51 13 -81 -1z"/>
</g>
</svg>
